<svg width="631" height="144" viewBox="0 0 631 144" fill="none" xmlns="http://www.w3.org/2000/svg">
<path d="M188.6 115.56C183.08 115.56 178.04 114.14 173.48 111.3C168.96 108.46 165.34 104.66 162.62 99.9C159.94 95.1 158.6 89.8 158.6 84C158.6 79.6 159.38 75.5 160.94 71.7C162.5 67.86 164.64 64.5 167.36 61.62C170.12 58.7 173.32 56.42 176.96 54.78C180.6 53.14 184.48 52.32 188.6 52.32C193.12 52.32 197.26 53.24 201.02 55.08C204.82 56.88 208.06 59.4 210.74 62.64C213.46 65.88 215.48 69.64 216.8 73.92C218.16 78.2 218.66 82.78 218.3 87.66H169.34C169.82 91.06 170.94 94.1 172.7 96.78C174.46 99.42 176.7 101.52 179.42 103.08C182.18 104.64 185.24 105.44 188.6 105.48C192.2 105.48 195.46 104.56 198.38 102.72C201.3 100.84 203.66 98.28 205.46 95.04L215.72 97.44C213.32 102.76 209.7 107.12 204.86 110.52C200.02 113.88 194.6 115.56 188.6 115.56ZM169.04 79.74H208.16C207.84 76.38 206.76 73.32 204.92 70.56C203.08 67.76 200.74 65.52 197.9 63.84C195.06 62.16 191.96 61.32 188.6 61.32C185.24 61.32 182.16 62.14 179.36 63.78C176.56 65.42 174.24 67.64 172.4 70.44C170.6 73.2 169.48 76.3 169.04 79.74ZM228.411 114V54H238.491V61.5C240.611 58.7 243.271 56.48 246.471 54.84C249.711 53.16 253.231 52.32 257.031 52.32C261.471 52.32 265.531 53.4 269.211 55.56C272.891 57.72 275.791 60.58 277.911 64.14C280.031 60.58 282.911 57.72 286.551 55.56C290.231 53.4 294.271 52.32 298.671 52.32C303.191 52.32 307.291 53.42 310.971 55.62C314.651 57.78 317.571 60.7 319.731 64.38C321.931 68.06 323.031 72.16 323.031 76.68V114H312.951V79.08C312.951 76.12 312.231 73.38 310.791 70.86C309.351 68.34 307.411 66.32 304.971 64.8C302.531 63.28 299.831 62.52 296.871 62.52C293.911 62.52 291.211 63.24 288.771 64.68C286.331 66.08 284.391 68.04 282.951 70.56C281.511 73.04 280.791 75.88 280.791 79.08V114H270.711V79.08C270.711 75.88 269.991 73.04 268.551 70.56C267.111 68.04 265.151 66.08 262.671 64.68C260.231 63.24 257.531 62.52 254.571 62.52C251.651 62.52 248.951 63.28 246.471 64.8C244.031 66.32 242.091 68.34 240.651 70.86C239.211 73.38 238.491 76.12 238.491 79.08V114H228.411ZM345.132 144H335.052V54H345.132V64.26C347.172 60.74 349.892 57.9 353.292 55.74C356.692 53.54 360.732 52.44 365.412 52.44C369.772 52.44 373.852 53.26 377.652 54.9C381.492 56.54 384.852 58.82 387.732 61.74C390.612 64.62 392.872 67.96 394.512 71.76C396.152 75.56 396.972 79.64 396.972 84C396.972 88.36 396.152 92.46 394.512 96.3C392.872 100.14 390.612 103.52 387.732 106.44C384.852 109.32 381.492 111.58 377.652 113.22C373.852 114.86 369.772 115.68 365.412 115.68C360.732 115.68 356.692 114.6 353.292 112.44C349.892 110.24 347.172 107.38 345.132 103.86V144ZM365.292 62.22C361.412 62.22 358.012 63.2 355.092 65.16C352.172 67.12 349.912 69.74 348.312 73.02C346.752 76.3 345.972 79.96 345.972 84C345.972 88 346.752 91.66 348.312 94.98C349.912 98.3 352.152 100.94 355.032 102.9C357.952 104.86 361.372 105.84 365.292 105.84C369.172 105.84 372.732 104.88 375.972 102.96C379.212 101 381.812 98.38 383.772 95.1C385.732 91.78 386.712 88.08 386.712 84C386.712 80 385.752 76.36 383.832 73.08C381.912 69.76 379.332 67.12 376.092 65.16C372.852 63.2 369.252 62.22 365.292 62.22ZM407.005 114V54H417.085V61.5C419.205 58.7 421.885 56.48 425.125 54.84C428.365 53.16 431.885 52.32 435.685 52.32C438.005 52.32 440.245 52.62 442.405 53.22L438.325 63.3C436.685 62.78 435.085 62.52 433.525 62.52C430.525 62.52 427.765 63.26 425.245 64.74C422.765 66.18 420.785 68.14 419.305 70.62C417.825 73.1 417.085 75.86 417.085 78.9V114H407.005ZM473.131 115.56C467.611 115.56 462.571 114.14 458.011 111.3C453.491 108.46 449.871 104.66 447.151 99.9C444.471 95.1 443.131 89.8 443.131 84C443.131 79.6 443.911 75.5 445.471 71.7C447.031 67.86 449.171 64.5 451.891 61.62C454.651 58.7 457.851 56.42 461.491 54.78C465.131 53.14 469.011 52.32 473.131 52.32C478.651 52.32 483.671 53.74 488.191 56.58C492.751 59.42 496.371 63.24 499.051 68.04C501.771 72.84 503.131 78.16 503.131 84C503.131 88.36 502.351 92.44 500.791 96.24C499.231 100.04 497.071 103.4 494.311 106.32C491.591 109.2 488.411 111.46 484.771 113.1C481.171 114.74 477.291 115.56 473.131 115.56ZM473.131 105.48C476.891 105.48 480.271 104.5 483.271 102.54C486.311 100.54 488.691 97.92 490.411 94.68C492.171 91.4 493.051 87.84 493.051 84C493.051 80.08 492.151 76.48 490.351 73.2C488.591 69.92 486.211 67.3 483.211 65.34C480.211 63.38 476.851 62.4 473.131 62.4C469.371 62.4 465.991 63.4 462.991 65.4C459.991 67.36 457.611 69.98 455.851 73.26C454.091 76.54 453.211 80.12 453.211 84C453.211 88 454.111 91.64 455.911 94.92C457.711 98.16 460.131 100.74 463.171 102.66C466.211 104.54 469.531 105.48 473.131 105.48ZM541.681 114H528.781L506.881 53.88H517.621L535.201 102.3L552.781 53.88H563.521L541.681 114ZM597.35 115.56C591.83 115.56 586.79 114.14 582.23 111.3C577.71 108.46 574.09 104.66 571.37 99.9C568.69 95.1 567.35 89.8 567.35 84C567.35 79.6 568.13 75.5 569.69 71.7C571.25 67.86 573.39 64.5 576.11 61.62C578.87 58.7 582.07 56.42 585.71 54.78C589.35 53.14 593.23 52.32 597.35 52.32C601.87 52.32 606.01 53.24 609.77 55.08C613.57 56.88 616.81 59.4 619.49 62.64C622.21 65.88 624.23 69.64 625.55 73.92C626.91 78.2 627.41 82.78 627.05 87.66H578.09C578.57 91.06 579.69 94.1 581.45 96.78C583.21 99.42 585.45 101.52 588.17 103.08C590.93 104.64 593.99 105.44 597.35 105.48C600.95 105.48 604.21 104.56 607.13 102.72C610.05 100.84 612.41 98.28 614.21 95.04L624.47 97.44C622.07 102.76 618.45 107.12 613.61 110.52C608.77 113.88 603.35 115.56 597.35 115.56ZM577.79 79.74H616.91C616.59 76.38 615.51 73.32 613.67 70.56C611.83 67.76 609.49 65.52 606.65 63.84C603.81 62.16 600.71 61.32 597.35 61.32C593.99 61.32 590.91 62.14 588.11 63.78C585.31 65.42 582.99 67.64 581.15 70.44C579.35 73.2 578.23 76.3 577.79 79.74Z" fill="white"/>
<path d="M75.9289 41.0711C79.8342 37.1658 86.1658 37.1658 90.0711 41.0711L125.929 76.9289C129.834 80.8342 129.834 87.1658 125.929 91.0711L90.0711 126.929C86.1658 130.834 79.8342 130.834 75.9289 126.929L40.0711 91.0711C36.1658 87.1658 36.1658 80.8342 40.0711 76.9289L75.9289 41.0711Z" fill="white"/>
<path d="M42.9289 41.0711C46.8342 37.1658 53.1658 37.1658 57.0711 41.0711L92.9289 76.9289C96.8342 80.8342 96.8342 87.1658 92.9289 91.0711L57.0711 126.929C53.1658 130.834 46.8342 130.834 42.9289 126.929L7.07107 91.0711C3.16583 87.1658 3.16582 80.8342 7.07107 76.9289L42.9289 41.0711Z" fill="#00CC99"/>
</svg>
