<svg width="682" height="161" viewBox="0 0 682 161" fill="none" xmlns="http://www.w3.org/2000/svg">
<path d="M206.6 115.56C201.08 115.56 196.04 114.14 191.48 111.3C186.96 108.46 183.34 104.66 180.62 99.9C177.94 95.1 176.6 89.8 176.6 84C176.6 79.6 177.38 75.5 178.94 71.7C180.5 67.86 182.64 64.5 185.36 61.62C188.12 58.7 191.32 56.42 194.96 54.78C198.6 53.14 202.48 52.32 206.6 52.32C211.2 52.32 215.42 53.28 219.26 55.2C223.1 57.08 226.38 59.7 229.1 63.06C231.82 66.38 233.82 70.22 235.1 74.58C236.38 78.9 236.76 83.5 236.24 88.38H189.98C190.5 91.14 191.5 93.64 192.98 95.88C194.5 98.08 196.42 99.82 198.74 101.1C201.1 102.38 203.72 103.04 206.6 103.08C209.64 103.08 212.4 102.32 214.88 100.8C217.4 99.28 219.46 97.18 221.06 94.5L233.72 97.44C231.32 102.76 227.7 107.12 222.86 110.52C218.02 113.88 212.6 115.56 206.6 115.56ZM189.56 78.84H223.64C223.24 75.96 222.22 73.36 220.58 71.04C218.98 68.68 216.96 66.82 214.52 65.46C212.12 64.06 209.48 63.36 206.6 63.36C203.76 63.36 201.12 64.04 198.68 65.4C196.28 66.76 194.28 68.62 192.68 70.98C191.12 73.3 190.08 75.92 189.56 78.84ZM250.977 114V54H263.457V60.36C265.537 57.88 268.077 55.92 271.077 54.48C274.117 53.04 277.397 52.32 280.917 52.32C285.197 52.32 289.137 53.36 292.737 55.44C296.337 57.48 299.197 60.2 301.317 63.6C303.437 60.2 306.257 57.48 309.777 55.44C313.337 53.36 317.257 52.32 321.537 52.32C325.977 52.32 330.017 53.4 333.657 55.56C337.297 57.72 340.197 60.62 342.357 64.26C344.517 67.9 345.597 71.94 345.597 76.38V114H333.117V79.56C333.117 76.92 332.477 74.5 331.197 72.3C329.917 70.1 328.197 68.32 326.037 66.96C323.877 65.6 321.477 64.92 318.837 64.92C316.197 64.92 313.797 65.56 311.637 66.84C309.477 68.12 307.757 69.86 306.477 72.06C305.197 74.26 304.557 76.76 304.557 79.56V114H292.077V79.56C292.077 76.76 291.437 74.26 290.157 72.06C288.877 69.86 287.137 68.12 284.937 66.84C282.777 65.56 280.377 64.92 277.737 64.92C275.137 64.92 272.737 65.6 270.537 66.96C268.377 68.32 266.657 70.1 265.377 72.3C264.097 74.5 263.457 76.92 263.457 79.56V114H250.977ZM374.897 144H362.417V54H374.897V62.82C376.897 59.74 379.457 57.24 382.577 55.32C385.697 53.4 389.377 52.44 393.617 52.44C397.977 52.44 402.057 53.26 405.857 54.9C409.697 56.54 413.057 58.82 415.937 61.74C418.817 64.62 421.077 67.96 422.717 71.76C424.357 75.56 425.177 79.64 425.177 84C425.177 88.36 424.357 92.46 422.717 96.3C421.077 100.14 418.817 103.52 415.937 106.44C413.057 109.32 409.697 111.58 405.857 113.22C402.057 114.86 397.977 115.68 393.617 115.68C389.377 115.68 385.697 114.72 382.577 112.8C379.457 110.84 376.897 108.34 374.897 105.3V144ZM393.497 64.5C390.017 64.5 386.957 65.38 384.317 67.14C381.677 68.9 379.617 71.26 378.137 74.22C376.657 77.14 375.917 80.4 375.917 84C375.917 87.6 376.657 90.88 378.137 93.84C379.617 96.8 381.677 99.16 384.317 100.92C386.957 102.68 390.017 103.56 393.497 103.56C396.937 103.56 400.097 102.7 402.977 100.98C405.857 99.22 408.157 96.86 409.877 93.9C411.597 90.94 412.457 87.64 412.457 84C412.457 80.44 411.597 77.18 409.877 74.22C408.197 71.26 405.917 68.9 403.037 67.14C400.157 65.38 396.977 64.5 393.497 64.5ZM439.756 114V54H452.236V60.36C454.316 57.88 456.876 55.92 459.916 54.48C462.956 53.04 466.236 52.32 469.756 52.32C471.996 52.32 474.216 52.62 476.416 53.22L471.436 65.82C469.876 65.22 468.316 64.92 466.756 64.92C464.116 64.92 461.696 65.58 459.496 66.9C457.296 68.18 455.536 69.92 454.216 72.12C452.896 74.32 452.236 76.76 452.236 79.44V114H439.756ZM511.738 115.56C506.218 115.56 501.178 114.14 496.618 111.3C492.098 108.46 488.478 104.66 485.758 99.9C483.078 95.1 481.738 89.8 481.738 84C481.738 79.6 482.518 75.5 484.078 71.7C485.638 67.86 487.778 64.5 490.498 61.62C493.258 58.7 496.458 56.42 500.098 54.78C503.738 53.14 507.618 52.32 511.738 52.32C517.258 52.32 522.278 53.74 526.798 56.58C531.358 59.42 534.978 63.24 537.658 68.04C540.378 72.84 541.738 78.16 541.738 84C541.738 88.36 540.958 92.44 539.398 96.24C537.838 100.04 535.678 103.4 532.918 106.32C530.198 109.2 527.018 111.46 523.378 113.1C519.778 114.74 515.898 115.56 511.738 115.56ZM511.738 103.08C515.058 103.08 518.038 102.2 520.678 100.44C523.318 98.68 525.398 96.36 526.918 93.48C528.478 90.56 529.258 87.4 529.258 84C529.258 80.52 528.458 77.32 526.858 74.4C525.298 71.48 523.198 69.16 520.558 67.44C517.918 65.68 514.978 64.8 511.738 64.8C508.458 64.8 505.478 65.68 502.798 67.44C500.158 69.2 498.058 71.54 496.498 74.46C494.978 77.38 494.218 80.56 494.218 84C494.218 87.56 495.018 90.78 496.618 93.66C498.218 96.54 500.338 98.84 502.978 100.56C505.658 102.24 508.578 103.08 511.738 103.08ZM587.739 114H571.719L549.819 53.88H563.139L579.699 99.6L596.319 53.88H609.579L587.739 114ZM647.666 115.56C642.146 115.56 637.106 114.14 632.546 111.3C628.026 108.46 624.406 104.66 621.686 99.9C619.006 95.1 617.666 89.8 617.666 84C617.666 79.6 618.446 75.5 620.006 71.7C621.566 67.86 623.706 64.5 626.426 61.62C629.186 58.7 632.386 56.42 636.026 54.78C639.666 53.14 643.546 52.32 647.666 52.32C652.266 52.32 656.486 53.28 660.326 55.2C664.166 57.08 667.446 59.7 670.166 63.06C672.886 66.38 674.886 70.22 676.166 74.58C677.446 78.9 677.826 83.5 677.306 88.38H631.046C631.566 91.14 632.566 93.64 634.046 95.88C635.566 98.08 637.486 99.82 639.806 101.1C642.166 102.38 644.786 103.04 647.666 103.08C650.706 103.08 653.466 102.32 655.946 100.8C658.466 99.28 660.526 97.18 662.126 94.5L674.786 97.44C672.386 102.76 668.766 107.12 663.926 110.52C659.086 113.88 653.666 115.56 647.666 115.56ZM630.626 78.84H664.706C664.306 75.96 663.286 73.36 661.646 71.04C660.046 68.68 658.026 66.82 655.586 65.46C653.186 64.06 650.546 63.36 647.666 63.36C644.826 63.36 642.186 64.04 639.746 65.4C637.346 66.76 635.346 68.62 633.746 70.98C632.186 73.3 631.146 75.92 630.626 78.84Z" fill="white"/>
<circle cx="75" cy="86" r="75" fill="white"/>
<path d="M83.9289 43.0711C87.8342 39.1658 94.1658 39.1658 98.0711 43.0711L133.929 78.9289C137.834 82.8342 137.834 89.1658 133.929 93.0711L98.0711 128.929C94.1658 132.834 87.8342 132.834 83.9289 128.929L48.0711 93.0711C44.1658 89.1658 44.1658 82.8342 48.0711 78.9289L83.9289 43.0711Z" fill="#3056D3"/>
<path d="M50.9289 43.0711C54.8342 39.1658 61.1658 39.1658 65.0711 43.0711L100.929 78.9289C104.834 82.8342 104.834 89.1658 100.929 93.0711L65.0711 128.929C61.1658 132.834 54.8342 132.834 50.9289 128.929L15.0711 93.0711C11.1658 89.1658 11.1658 82.8342 15.0711 78.9289L50.9289 43.0711Z" fill="#00FFBF"/>
</svg>
