<svg width="664" height="144" viewBox="0 0 664 144" fill="none" xmlns="http://www.w3.org/2000/svg">
<path d="M188.6 115.56C183.08 115.56 178.04 114.14 173.48 111.3C168.96 108.46 165.34 104.66 162.62 99.9C159.94 95.1 158.6 89.8 158.6 84C158.6 79.6 159.38 75.5 160.94 71.7C162.5 67.86 164.64 64.5 167.36 61.62C170.12 58.7 173.32 56.42 176.96 54.78C180.6 53.14 184.48 52.32 188.6 52.32C193.2 52.32 197.42 53.28 201.26 55.2C205.1 57.08 208.38 59.7 211.1 63.06C213.82 66.38 215.82 70.22 217.1 74.58C218.38 78.9 218.76 83.5 218.24 88.38H171.98C172.5 91.14 173.5 93.64 174.98 95.88C176.5 98.08 178.42 99.82 180.74 101.1C183.1 102.38 185.72 103.04 188.6 103.08C191.64 103.08 194.4 102.32 196.88 100.8C199.4 99.28 201.46 97.18 203.06 94.5L215.72 97.44C213.32 102.76 209.7 107.12 204.86 110.52C200.02 113.88 194.6 115.56 188.6 115.56ZM171.56 78.84H205.64C205.24 75.96 204.22 73.36 202.58 71.04C200.98 68.68 198.96 66.82 196.52 65.46C194.12 64.06 191.48 63.36 188.6 63.36C185.76 63.36 183.12 64.04 180.68 65.4C178.28 66.76 176.28 68.62 174.68 70.98C173.12 73.3 172.08 75.92 171.56 78.84ZM232.977 114V54H245.457V60.36C247.537 57.88 250.077 55.92 253.077 54.48C256.117 53.04 259.397 52.32 262.917 52.32C267.197 52.32 271.137 53.36 274.737 55.44C278.337 57.48 281.197 60.2 283.317 63.6C285.437 60.2 288.257 57.48 291.777 55.44C295.337 53.36 299.257 52.32 303.537 52.32C307.977 52.32 312.017 53.4 315.657 55.56C319.297 57.72 322.197 60.62 324.357 64.26C326.517 67.9 327.597 71.94 327.597 76.38V114H315.117V79.56C315.117 76.92 314.477 74.5 313.197 72.3C311.917 70.1 310.197 68.32 308.037 66.96C305.877 65.6 303.477 64.92 300.837 64.92C298.197 64.92 295.797 65.56 293.637 66.84C291.477 68.12 289.757 69.86 288.477 72.06C287.197 74.26 286.557 76.76 286.557 79.56V114H274.077V79.56C274.077 76.76 273.437 74.26 272.157 72.06C270.877 69.86 269.137 68.12 266.937 66.84C264.777 65.56 262.377 64.92 259.737 64.92C257.137 64.92 254.737 65.6 252.537 66.96C250.377 68.32 248.657 70.1 247.377 72.3C246.097 74.5 245.457 76.92 245.457 79.56V114H232.977ZM356.897 144H344.417V54H356.897V62.82C358.897 59.74 361.457 57.24 364.577 55.32C367.697 53.4 371.377 52.44 375.617 52.44C379.977 52.44 384.057 53.26 387.857 54.9C391.697 56.54 395.057 58.82 397.937 61.74C400.817 64.62 403.077 67.96 404.717 71.76C406.357 75.56 407.177 79.64 407.177 84C407.177 88.36 406.357 92.46 404.717 96.3C403.077 100.14 400.817 103.52 397.937 106.44C395.057 109.32 391.697 111.58 387.857 113.22C384.057 114.86 379.977 115.68 375.617 115.68C371.377 115.68 367.697 114.72 364.577 112.8C361.457 110.84 358.897 108.34 356.897 105.3V144ZM375.497 64.5C372.017 64.5 368.957 65.38 366.317 67.14C363.677 68.9 361.617 71.26 360.137 74.22C358.657 77.14 357.917 80.4 357.917 84C357.917 87.6 358.657 90.88 360.137 93.84C361.617 96.8 363.677 99.16 366.317 100.92C368.957 102.68 372.017 103.56 375.497 103.56C378.937 103.56 382.097 102.7 384.977 100.98C387.857 99.22 390.157 96.86 391.877 93.9C393.597 90.94 394.457 87.64 394.457 84C394.457 80.44 393.597 77.18 391.877 74.22C390.197 71.26 387.917 68.9 385.037 67.14C382.157 65.38 378.977 64.5 375.497 64.5ZM421.756 114V54H434.236V60.36C436.316 57.88 438.876 55.92 441.916 54.48C444.956 53.04 448.236 52.32 451.756 52.32C453.996 52.32 456.216 52.62 458.416 53.22L453.436 65.82C451.876 65.22 450.316 64.92 448.756 64.92C446.116 64.92 443.696 65.58 441.496 66.9C439.296 68.18 437.536 69.92 436.216 72.12C434.896 74.32 434.236 76.76 434.236 79.44V114H421.756ZM493.738 115.56C488.218 115.56 483.178 114.14 478.618 111.3C474.098 108.46 470.478 104.66 467.758 99.9C465.078 95.1 463.738 89.8 463.738 84C463.738 79.6 464.518 75.5 466.078 71.7C467.638 67.86 469.778 64.5 472.498 61.62C475.258 58.7 478.458 56.42 482.098 54.78C485.738 53.14 489.618 52.32 493.738 52.32C499.258 52.32 504.278 53.74 508.798 56.58C513.358 59.42 516.978 63.24 519.658 68.04C522.378 72.84 523.738 78.16 523.738 84C523.738 88.36 522.958 92.44 521.398 96.24C519.838 100.04 517.678 103.4 514.918 106.32C512.198 109.2 509.018 111.46 505.378 113.1C501.778 114.74 497.898 115.56 493.738 115.56ZM493.738 103.08C497.058 103.08 500.038 102.2 502.678 100.44C505.318 98.68 507.398 96.36 508.918 93.48C510.478 90.56 511.258 87.4 511.258 84C511.258 80.52 510.458 77.32 508.858 74.4C507.298 71.48 505.198 69.16 502.558 67.44C499.918 65.68 496.978 64.8 493.738 64.8C490.458 64.8 487.478 65.68 484.798 67.44C482.158 69.2 480.058 71.54 478.498 74.46C476.978 77.38 476.218 80.56 476.218 84C476.218 87.56 477.018 90.78 478.618 93.66C480.218 96.54 482.338 98.84 484.978 100.56C487.658 102.24 490.578 103.08 493.738 103.08ZM569.739 114H553.719L531.819 53.88H545.139L561.699 99.6L578.319 53.88H591.579L569.739 114ZM629.666 115.56C624.146 115.56 619.106 114.14 614.546 111.3C610.026 108.46 606.406 104.66 603.686 99.9C601.006 95.1 599.666 89.8 599.666 84C599.666 79.6 600.446 75.5 602.006 71.7C603.566 67.86 605.706 64.5 608.426 61.62C611.186 58.7 614.386 56.42 618.026 54.78C621.666 53.14 625.546 52.32 629.666 52.32C634.266 52.32 638.486 53.28 642.326 55.2C646.166 57.08 649.446 59.7 652.166 63.06C654.886 66.38 656.886 70.22 658.166 74.58C659.446 78.9 659.826 83.5 659.306 88.38H613.046C613.566 91.14 614.566 93.64 616.046 95.88C617.566 98.08 619.486 99.82 621.806 101.1C624.166 102.38 626.786 103.04 629.666 103.08C632.706 103.08 635.466 102.32 637.946 100.8C640.466 99.28 642.526 97.18 644.126 94.5L656.786 97.44C654.386 102.76 650.766 107.12 645.926 110.52C641.086 113.88 635.666 115.56 629.666 115.56ZM612.626 78.84H646.706C646.306 75.96 645.286 73.36 643.646 71.04C642.046 68.68 640.026 66.82 637.586 65.46C635.186 64.06 632.546 63.36 629.666 63.36C626.826 63.36 624.186 64.04 621.746 65.4C619.346 66.76 617.346 68.62 615.746 70.98C614.186 73.3 613.146 75.92 612.626 78.84Z" fill="#3056D3"/>
<path d="M75.9289 42.0711C79.8342 38.1658 86.1658 38.1658 90.0711 42.0711L125.929 77.9289C129.834 81.8342 129.834 88.1658 125.929 92.0711L90.0711 127.929C86.1658 131.834 79.8342 131.834 75.9289 127.929L40.0711 92.0711C36.1658 88.1658 36.1658 81.8342 40.0711 77.9289L75.9289 42.0711Z" fill="#3056D3"/>
<path d="M42.9289 42.0711C46.8342 38.1658 53.1658 38.1658 57.0711 42.0711L92.9289 77.9289C96.8342 81.8342 96.8342 88.1658 92.9289 92.0711L57.0711 127.929C53.1658 131.834 46.8342 131.834 42.9289 127.929L7.07107 92.0711C3.16583 88.1658 3.16582 81.8342 7.07107 77.9289L42.9289 42.0711Z" fill="#00FFBF"/>
</svg>
